<svg width="64" height="64" viewBox="0 0 64 64" fill="none" xmlns="http://www.w3.org/2000/svg">
<path d="M64 32C64 49.6731 49.6731 64 32 64C14.3269 64 0 49.6731 0 32C0 14.3269 14.3269 0 32 0C49.6731 0 64 14.3269 64 32Z" fill="#AF282F"/>
<path d="M29.6667 42.3333C29.6667 42.8638 29.8774 43.3725 30.2525 43.7475C30.6275 44.1226 31.1362 44.3333 31.6667 44.3333C32.1971 44.3333 32.7058 44.1226 33.0809 43.7475C33.456 43.3725 33.6667 42.8638 33.6667 42.3333V33.6667H42.3333C42.8638 33.6667 43.3725 33.456 43.7475 33.0809C44.1226 32.7058 44.3333 32.1971 44.3333 31.6667C44.3333 31.1362 44.1226 30.6275 43.7475 30.2525C43.3725 29.8774 42.8638 29.6667 42.3333 29.6667H33.6667V21C33.6667 20.4696 33.456 19.9609 33.0809 19.5858C32.7058 19.2107 32.1971 19 31.6667 19C31.1362 19 30.6275 19.2107 30.2525 19.5858C29.8774 19.9609 29.6667 20.4696 29.6667 21V29.6667H21C20.4696 29.6667 19.9609 29.8774 19.5858 30.2525C19.2107 30.6275 19 31.1362 19 31.6667C19 32.1971 19.2107 32.7058 19.5858 33.0809C19.9609 33.456 20.4696 33.6667 21 33.6667H29.6667V42.3333Z" fill="white"/>
</svg>
