<svg width="64" height="64" viewBox="0 0 64 64" fill="none" xmlns="http://www.w3.org/2000/svg">
<path d="M64 32C64 49.6731 49.6731 64 32 64C14.3269 64 0 49.6731 0 32C0 14.3269 14.3269 0 32 0C49.6731 0 64 14.3269 64 32Z" fill="#E8C999"/>
<path d="M28.1427 23.264C28.94 20.9307 32.164 20.86 33.1093 23.052L33.1893 23.2653L34.2653 26.412C34.5119 27.1336 34.9104 27.794 35.4339 28.3486C35.9574 28.9031 36.5937 29.3389 37.3 29.6267L37.5893 29.7347L40.736 30.8093C43.0693 31.6067 43.14 34.8307 40.9493 35.776L40.736 35.856L37.5893 36.932C36.8674 37.1784 36.2068 37.5768 35.652 38.1003C35.0972 38.6239 34.6612 39.2603 34.3733 39.9667L34.2653 40.2547L33.1907 43.4027C32.3933 45.736 29.1693 45.8067 28.2253 43.616L28.1427 43.4027L27.068 40.256C26.8216 39.5341 26.4232 38.8735 25.8997 38.3187C25.3761 37.7639 24.7397 37.3279 24.0333 37.04L23.7453 36.932L20.5987 35.8573C18.264 35.06 18.1933 31.836 20.3853 30.892L20.5987 30.8093L23.7453 29.7347C24.467 29.4881 25.1273 29.0896 25.6819 28.5661C26.2364 28.0426 26.6723 27.4063 26.96 26.7L27.068 26.412L28.1427 23.264ZM41.3333 18.6667C41.5828 18.6667 41.8272 18.7366 42.0389 18.8686C42.2505 19.0006 42.4209 19.1893 42.5307 19.4133L42.5947 19.5693L43.0613 20.9373L44.4307 21.404C44.6806 21.4889 44.8998 21.6462 45.0603 21.8558C45.2208 22.0654 45.3155 22.3179 45.3324 22.5814C45.3492 22.8448 45.2875 23.1074 45.155 23.3357C45.0224 23.5641 44.8251 23.7479 44.588 23.864L44.4307 23.928L43.0627 24.3947L42.596 25.764C42.5109 26.0139 42.3536 26.2329 42.1439 26.3933C41.9342 26.5537 41.6817 26.6483 41.4182 26.665C41.1547 26.6817 40.8922 26.6198 40.664 26.4872C40.4357 26.3546 40.252 26.1572 40.136 25.92L40.072 25.764L39.6053 24.396L38.236 23.9293C37.986 23.8444 37.7669 23.6872 37.6064 23.4776C37.4458 23.268 37.3511 23.0154 37.3343 22.752C37.3174 22.4885 37.3792 22.226 37.5117 21.9976C37.6442 21.7693 37.8415 21.5854 38.0787 21.4693L38.236 21.4053L39.604 20.9387L40.0707 19.5693C40.1606 19.3059 40.3307 19.0772 40.5571 18.9153C40.7836 18.7535 41.055 18.6665 41.3333 18.6667Z" fill="white"/>
</svg>
