<svg width="16" height="16" viewBox="0 0 16 16" fill="none" xmlns="http://www.w3.org/2000/svg">
<path d="M11.1869 7.43779C11.2058 9.55637 12.9804 10.2615 13 10.2705C12.985 10.3201 12.7165 11.2752 12.0652 12.2616C11.5021 13.1145 10.9176 13.9641 9.99712 13.9819C9.09261 13.9991 8.80173 13.4259 7.76749 13.4259C6.73358 13.4259 6.41051 13.9641 5.55418 13.9991C4.66554 14.034 3.98885 13.0767 3.42111 12.2271C2.26106 10.489 1.3745 7.31552 2.56488 5.17339C3.15622 4.10959 4.21318 3.43604 5.36029 3.41869C6.23283 3.40145 7.05643 4.02699 7.58981 4.02699C8.12286 4.02699 9.12371 3.27467 10.1759 3.38511C10.6164 3.40415 11.8528 3.56947 12.6467 4.7739C12.5829 4.81503 11.1715 5.66652 11.1869 7.43779ZM9.4869 2.23533C9.95862 1.64359 10.2761 0.819597 10.1896 0C9.50952 0.0282853 8.68722 0.469581 8.19952 1.06109C7.76238 1.58476 7.37961 2.42318 7.48281 3.22655C8.24084 3.2874 9.01508 2.8274 9.4869 2.23533Z" fill="white"/>
</svg>
