<svg width="32" height="32" viewBox="0 0 32 32" fill="none" xmlns="http://www.w3.org/2000/svg">
<path d="M13.3333 25.3334L7.26667 28.3667C6.82222 28.5889 6.38889 28.572 5.96667 28.316C5.54445 28.06 5.33334 27.6774 5.33334 27.168V10.6667C5.33334 9.93335 5.59467 9.3058 6.11734 8.78402C6.64 8.26224 7.26756 8.00091 8 8.00002H18.6667C19.4 8.00002 20.028 8.26135 20.5507 8.78402C21.0733 9.30669 21.3342 9.93424 21.3333 10.6667V27.1667C21.3333 27.6778 21.1222 28.0614 20.7 28.3174C20.2778 28.5734 19.8444 28.5898 19.4 28.3667L13.3333 25.3334ZM25.3333 24C24.9556 24 24.6391 23.872 24.384 23.616C24.1289 23.36 24.0009 23.0436 24 22.6667V5.33335H10.6667C10.2889 5.33335 9.97245 5.20535 9.71734 4.94935C9.46222 4.69335 9.33422 4.37691 9.33334 4.00002C9.33245 3.62313 9.46045 3.30669 9.71734 3.05069C9.97423 2.79469 10.2907 2.66669 10.6667 2.66669H24C24.7333 2.66669 25.3613 2.92802 25.884 3.45069C26.4067 3.97335 26.6676 4.60091 26.6667 5.33335V22.6667C26.6667 23.0445 26.5387 23.3614 26.2827 23.6174C26.0267 23.8734 25.7102 24.0009 25.3333 24Z" fill="currentColor"/>
</svg>
