<svg width="18" height="18" viewBox="0 0 18 18" fill="none" xmlns="http://www.w3.org/2000/svg">
<path d="M7.5 2.25H3C2.80109 2.25 2.61032 2.32902 2.46967 2.46967C2.32902 2.61032 2.25 2.80109 2.25 3V7.5C2.25 7.69891 2.32902 7.88968 2.46967 8.03033C2.61032 8.17098 2.80109 8.25 3 8.25H7.5C7.69891 8.25 7.88968 8.17098 8.03033 8.03033C8.17098 7.88968 8.25 7.69891 8.25 7.5V3C8.25 2.80109 8.17098 2.61032 8.03033 2.46967C7.88968 2.32902 7.69891 2.25 7.5 2.25ZM15 2.25H10.5C10.3011 2.25 10.1103 2.32902 9.96967 2.46967C9.82902 2.61032 9.75 2.80109 9.75 3V7.5C9.75 7.69891 9.82902 7.88968 9.96967 8.03033C10.1103 8.17098 10.3011 8.25 10.5 8.25H15C15.1989 8.25 15.3897 8.17098 15.5303 8.03033C15.671 7.88968 15.75 7.69891 15.75 7.5V3C15.75 2.80109 15.671 2.61032 15.5303 2.46967C15.3897 2.32902 15.1989 2.25 15 2.25ZM7.5 9.75H3C2.80109 9.75 2.61032 9.82902 2.46967 9.96967C2.32902 10.1103 2.25 10.3011 2.25 10.5V15C2.25 15.1989 2.32902 15.3897 2.46967 15.5303C2.61032 15.671 2.80109 15.75 3 15.75H7.5C7.69891 15.75 7.88968 15.671 8.03033 15.5303C8.17098 15.3897 8.25 15.1989 8.25 15V10.5C8.25 10.3011 8.17098 10.1103 8.03033 9.96967C7.88968 9.82902 7.69891 9.75 7.5 9.75ZM12.75 9.75C13.337 9.75 13.911 9.92218 14.4011 10.2452C14.8911 10.5683 15.2757 11.028 15.5071 11.5674C15.7384 12.1068 15.8065 12.7023 15.7028 13.28C15.5991 13.8577 15.3282 14.3923 14.9237 14.8176C14.5192 15.2429 13.9988 15.5402 13.427 15.6726C12.8551 15.8051 12.257 15.7669 11.7067 15.5627C11.1564 15.3586 10.678 14.9976 10.3309 14.5243C9.98377 14.051 9.7831 13.4862 9.75375 12.9L9.75 12.75L9.75375 12.6C9.79223 11.8313 10.1247 11.1068 10.6824 10.5763C11.2401 10.0458 11.9803 9.75 12.75 9.75Z" fill="currentColor"/>
</svg>
