<svg width="36" height="36" viewBox="0 0 36 36" fill="none" xmlns="http://www.w3.org/2000/svg">
<rect width="36" height="36" rx="18" fill="#F5F5F5"/>
<circle cx="18" cy="18" r="18" fill="#F5F5F5"/>
<path fill-rule="evenodd" clip-rule="evenodd" d="M12.707 11.2929C12.5184 11.1108 12.2658 11.01 12.0036 11.0122C11.7414 11.0145 11.4906 11.1197 11.3052 11.3051C11.1198 11.4905 11.0146 11.7413 11.0123 12.0035C11.0101 12.2657 11.1109 12.5183 11.293 12.7069L16.586 17.9999L11.293 23.2929C11.1975 23.3852 11.1213 23.4955 11.0689 23.6175C11.0165 23.7395 10.9889 23.8707 10.9878 24.0035C10.9866 24.1363 11.0119 24.268 11.0622 24.3909C11.1125 24.5138 11.1867 24.6254 11.2806 24.7193C11.3745 24.8132 11.4862 24.8875 11.6091 24.9377C11.732 24.988 11.8636 25.0133 11.9964 25.0122C12.1292 25.011 12.2604 24.9834 12.3824 24.931C12.5044 24.8786 12.6148 24.8024 12.707 24.7069L18 19.4139L23.293 24.7069C23.4816 24.8891 23.7342 24.9899 23.9964 24.9876C24.2586 24.9853 24.5094 24.8801 24.6948 24.6947C24.8802 24.5093 24.9854 24.2585 24.9877 23.9963C24.99 23.7341 24.8892 23.4815 24.707 23.2929L19.414 17.9999L24.707 12.7069C24.8892 12.5183 24.99 12.2657 24.9877 12.0035C24.9854 11.7413 24.8802 11.4905 24.6948 11.3051C24.5094 11.1197 24.2586 11.0145 23.9964 11.0122C23.7342 11.01 23.4816 11.1108 23.293 11.2929L18 16.5859L12.707 11.2929Z" fill="#B3B3B3" stroke="#B3B3B3"/>
</svg>
