<svg width="8" height="8" viewBox="0 0 8 8" fill="none" xmlns="http://www.w3.org/2000/svg">
<path fill-rule="evenodd" clip-rule="evenodd" d="M0.98245 0.167426C0.874678 0.0633355 0.730334 0.00573869 0.580507 0.00704064C0.43068 0.0083426 0.287359 0.0684391 0.181411 0.174387C0.0754637 0.280334 0.0153672 0.423656 0.0140652 0.573482C0.0127633 0.723309 0.0703601 0.867653 0.17445 0.975426L3.19902 4L0.17445 7.02457C0.119873 7.07728 0.0763405 7.14034 0.0463925 7.21005C0.0164445 7.27977 0.000680899 7.35475 2.15753e-05 7.43063C-0.000637748 7.5065 0.0138204 7.58174 0.0425523 7.65197C0.0712842 7.7222 0.113715 7.786 0.167368 7.83965C0.221021 7.8933 0.284822 7.93574 0.355048 7.96447C0.425275 7.9932 0.50052 8.00766 0.576394 8.007C0.652268 8.00634 0.727251 7.99058 0.796967 7.96063C0.866684 7.93068 0.929738 7.88715 0.98245 7.83257L4.00702 4.808L7.03159 7.83257C7.13937 7.93666 7.28371 7.99426 7.43354 7.99295C7.58336 7.99165 7.72669 7.93156 7.83263 7.82561C7.93858 7.71966 7.99868 7.57634 7.99998 7.42651C8.00128 7.27669 7.94368 7.13234 7.83959 7.02457L4.81502 4L7.83959 0.975426C7.94368 0.867653 8.00128 0.723309 7.99998 0.573482C7.99868 0.423656 7.93858 0.280334 7.83263 0.174387C7.72669 0.0684391 7.58336 0.0083426 7.43354 0.00704064C7.28371 0.00573869 7.13937 0.0633355 7.03159 0.167426L4.00702 3.192L0.98245 0.167426Z" fill="white"/>
</svg>
