<svg width="56" height="56" viewBox="0 0 56 56" fill="none" xmlns="http://www.w3.org/2000/svg">
<circle cx="28" cy="28" r="28" fill="#AF282F"/>
<path fill-rule="evenodd" clip-rule="evenodd" d="M30.5333 17C30.9997 17.0001 31.4543 17.1455 31.8326 17.4156C32.2109 17.6857 32.4937 18.0667 32.6411 18.5048L33.2444 20.3H36.8889C37.1836 20.3 37.4662 20.4159 37.6746 20.6222C37.8829 20.8285 38 21.1083 38 21.4C38 21.6917 37.8829 21.9715 37.6746 22.1778C37.4662 22.3841 37.1836 22.5 36.8889 22.5L36.8856 22.5781L35.9222 35.9354C35.8621 36.7677 35.4858 37.5465 34.8689 38.1151C34.2521 38.6837 33.4406 38.9999 32.5978 39H23.4022C22.5594 38.9999 21.7479 38.6837 21.1311 38.1151C20.5143 37.5465 20.1379 36.7677 20.0778 35.9354L19.1144 22.577L19.1111 22.5C18.8164 22.5 18.5338 22.3841 18.3254 22.1778C18.1171 21.9715 18 21.6917 18 21.4C18 21.1083 18.1171 20.8285 18.3254 20.6222C18.5338 20.4159 18.8164 20.3 19.1111 20.3H22.7556L23.3589 18.5048C23.5063 18.0665 23.7894 17.6854 24.1679 17.4153C24.5464 17.1452 25.0012 16.9999 25.4678 17H30.5333ZM24.6667 25.8C24.3945 25.8 24.1318 25.899 23.9285 26.078C23.7251 26.257 23.5952 26.5037 23.5633 26.7713L23.5556 26.9V33.5C23.5559 33.7804 23.6643 34.05 23.8587 34.2539C24.0531 34.4578 24.3188 34.5805 24.6016 34.5969C24.8843 34.6133 25.1626 34.5223 25.3798 34.3423C25.597 34.1624 25.7366 33.9071 25.77 33.6287L25.7778 33.5V26.9C25.7778 26.6083 25.6607 26.3285 25.4523 26.1222C25.244 25.9159 24.9614 25.8 24.6667 25.8ZM31.3333 25.8C31.0386 25.8 30.756 25.9159 30.5477 26.1222C30.3393 26.3285 30.2222 26.6083 30.2222 26.9V33.5C30.2222 33.7917 30.3393 34.0715 30.5477 34.2778C30.756 34.4841 31.0386 34.6 31.3333 34.6C31.628 34.6 31.9106 34.4841 32.119 34.2778C32.3274 34.0715 32.4444 33.7917 32.4444 33.5V26.9C32.4444 26.6083 32.3274 26.3285 32.119 26.1222C31.9106 25.9159 31.628 25.8 31.3333 25.8ZM30.5333 19.2H25.4667L25.0967 20.3H30.9033L30.5333 19.2Z" fill="white"/>
</svg>
