<svg width="16" height="16" viewBox="0 0 16 16" fill="none" xmlns="http://www.w3.org/2000/svg">
<path fill-rule="evenodd" clip-rule="evenodd" d="M14.364 3.40735C14.5515 3.59487 14.6568 3.84918 14.6568 4.11435C14.6568 4.37951 14.5515 4.63382 14.364 4.82135L6.86867 12.3167C6.76961 12.4158 6.65202 12.4943 6.52259 12.548C6.39316 12.6016 6.25443 12.6292 6.11433 12.6292C5.97424 12.6292 5.83551 12.6016 5.70608 12.548C5.57665 12.4943 5.45905 12.4158 5.36 12.3167L1.636 8.59335C1.54049 8.5011 1.46431 8.39076 1.4119 8.26875C1.35949 8.14675 1.3319 8.01553 1.33075 7.88275C1.3296 7.74997 1.3549 7.61829 1.40518 7.49539C1.45546 7.3725 1.52971 7.26084 1.6236 7.16695C1.7175 7.07306 1.82915 6.99881 1.95205 6.94853C2.07494 6.89824 2.20662 6.87294 2.3394 6.8741C2.47218 6.87525 2.6034 6.90284 2.7254 6.95525C2.84741 7.00765 2.95775 7.08384 3.05 7.17935L6.114 10.2433L12.9493 3.40735C13.0422 3.31442 13.1525 3.2407 13.2738 3.19041C13.3952 3.14011 13.5253 3.11423 13.6567 3.11423C13.788 3.11423 13.9181 3.14011 14.0395 3.19041C14.1609 3.2407 14.2711 3.31442 14.364 3.40735Z" fill="#AF282F"/>
</svg>
