<svg width="56" height="56" viewBox="0 0 56 56" fill="none" xmlns="http://www.w3.org/2000/svg">
<circle cx="28" cy="28" r="28" fill="#4077C0"/>
<path d="M38.6325 16.7186C37.6744 15.7605 36.1256 15.7605 35.1675 16.7186L34.1 17.7861L38.3831 22.0692L39.4506 21.0017C40.4088 20.0436 40.4088 18.4948 39.4506 17.5367L38.6325 16.7186ZM25.5425 26.3436C25.2756 26.6105 25.07 26.9386 24.9519 27.3017L23.6569 31.1867C23.53 31.563 23.6306 31.9786 23.9106 32.263C24.1906 32.5473 24.6063 32.6436 24.9869 32.5167L28.8719 31.2217C29.2306 31.1036 29.5588 30.898 29.83 30.6311L36.9 23.5523L32.6169 19.2692L25.5425 26.3436ZM22.2 18.5692C19.8813 18.5692 18 20.4505 18 22.7692V33.9692C18 36.288 19.8813 38.1692 22.2 38.1692H33.4C35.7188 38.1692 37.6 36.288 37.6 33.9692V29.7692C37.6 28.9948 36.9744 28.3692 36.2 28.3692C35.4256 28.3692 34.8 28.9948 34.8 29.7692V33.9692C34.8 34.7436 34.1744 35.3692 33.4 35.3692H22.2C21.4256 35.3692 20.8 34.7436 20.8 33.9692V22.7692C20.8 21.9948 21.4256 21.3692 22.2 21.3692H26.4C27.1744 21.3692 27.8 20.7436 27.8 19.9692C27.8 19.1948 27.1744 18.5692 26.4 18.5692H22.2Z" fill="white"/>
</svg>
