<svg width="18" height="18" viewBox="0 0 18 18" fill="none" xmlns="http://www.w3.org/2000/svg">
<path fill-rule="evenodd" clip-rule="evenodd" d="M3.75 15C3.15326 15 2.58097 14.7629 2.15901 14.341C1.73705 13.919 1.5 13.3467 1.5 12.75V5.25C1.5 4.65326 1.73705 4.08097 2.15901 3.65901C2.58097 3.23705 3.15326 3 3.75 3H14.25C14.8467 3 15.419 3.23705 15.841 3.65901C16.2629 4.08097 16.5 4.65326 16.5 5.25V12.75C16.5 13.3467 16.2629 13.919 15.841 14.341C15.419 14.7629 14.8467 15 14.25 15H3.75ZM5.71875 6.165C5.64235 6.09976 5.55362 6.05054 5.45784 6.02025C5.36205 5.98996 5.26115 5.97923 5.16113 5.98869C5.06112 5.99814 4.96402 6.02759 4.8756 6.0753C4.78719 6.123 4.70926 6.18798 4.64644 6.26638C4.58362 6.34478 4.53719 6.435 4.50991 6.53168C4.48263 6.62837 4.47505 6.72955 4.48762 6.82923C4.5002 6.9289 4.53267 7.02503 4.58311 7.11191C4.63355 7.1988 4.70093 7.27466 4.78125 7.335L7.59375 9.58575C7.99282 9.90526 8.48879 10.0793 9 10.0793C9.51121 10.0793 10.0072 9.90526 10.4063 9.58575L13.2188 7.33575C13.2957 7.27419 13.3597 7.19809 13.4072 7.11178C13.4547 7.02547 13.4848 6.93065 13.4956 6.83273C13.5065 6.73481 13.498 6.63571 13.4705 6.54109C13.4431 6.44646 13.3973 6.35817 13.3358 6.28125C13.2742 6.20433 13.1981 6.14028 13.1118 6.09277C13.0255 6.04526 12.9307 6.01522 12.8327 6.00436C12.7348 5.99349 12.6357 6.00202 12.5411 6.02945C12.4465 6.05689 12.3582 6.10269 12.2813 6.16425L9.46875 8.41425C9.33573 8.52075 9.1704 8.57878 9 8.57878C8.8296 8.57878 8.66427 8.52075 8.53125 8.41425L5.71875 6.165Z" fill="white"/>
</svg>
