<svg width="30" height="30" viewBox="0 0 30 30" fill="none" xmlns="http://www.w3.org/2000/svg">
<path d="M11.25 21.25H18.75C19.1042 21.25 19.4013 21.13 19.6413 20.89C19.8813 20.65 20.0008 20.3533 20 20C19.9992 19.6467 19.8792 19.35 19.64 19.11C19.4008 18.87 19.1042 18.75 18.75 18.75H11.25C10.8958 18.75 10.5992 18.87 10.36 19.11C10.1208 19.35 10.0008 19.6467 10 20C9.99917 20.3533 10.1192 20.6504 10.36 20.8912C10.6008 21.1321 10.8975 21.2517 11.25 21.25ZM13.6875 14L11.875 12.1875C11.6458 11.9583 11.3542 11.8438 11 11.8438C10.6458 11.8438 10.3542 11.9583 10.125 12.1875C9.89584 12.4167 9.78125 12.7083 9.78125 13.0625C9.78125 13.4167 9.89584 13.7083 10.125 13.9375L12.8125 16.625C13.0625 16.875 13.3542 17 13.6875 17C14.0208 17 14.3125 16.875 14.5625 16.625L19.875 11.3125C20.125 11.0625 20.245 10.7654 20.235 10.4212C20.225 10.0771 20.0946 9.79083 19.8438 9.5625C19.5929 9.33417 19.2963 9.225 18.9538 9.235C18.6113 9.245 18.3246 9.36458 18.0938 9.59375L13.6875 14ZM15 27.5C13.2708 27.5 11.6458 27.1717 10.125 26.515C8.60417 25.8583 7.28125 24.9679 6.15625 23.8438C5.03125 22.7196 4.14084 21.3967 3.485 19.875C2.82917 18.3533 2.50083 16.7283 2.5 15C2.49917 13.2717 2.8275 11.6467 3.485 10.125C4.1425 8.60333 5.03292 7.28042 6.15625 6.15625C7.27958 5.03208 8.6025 4.14167 10.125 3.485C11.6475 2.82833 13.2725 2.5 15 2.5C16.7275 2.5 18.3525 2.82833 19.875 3.485C21.3975 4.14167 22.7204 5.03208 23.8438 6.15625C24.9671 7.28042 25.8579 8.60333 26.5163 10.125C27.1746 11.6467 27.5025 13.2717 27.5 15C27.4975 16.7283 27.1692 18.3533 26.515 19.875C25.8608 21.3967 24.9704 22.7196 23.8438 23.8438C22.7171 24.9679 21.3942 25.8587 19.875 26.5162C18.3558 27.1737 16.7308 27.5017 15 27.5Z" fill="currentColor"/>
</svg>
