<svg width="14" height="14" viewBox="0 0 14 14" fill="none" xmlns="http://www.w3.org/2000/svg">
<path d="M8.65083 11.0833C8.53032 11.4249 8.30682 11.7207 8.01115 11.9299C7.71548 12.1391 7.3622 12.2514 7 12.2514C6.6378 12.2514 6.28452 12.1391 5.98885 11.9299C5.69318 11.7207 5.46968 11.4249 5.34917 11.0833H8.65083ZM7 1.16666C8.08297 1.16666 9.12158 1.59686 9.88735 2.36264C10.6531 3.12841 11.0833 4.16702 11.0833 5.24999V7.30799C11.0834 7.39853 11.1046 7.4878 11.1452 7.56874L12.1462 9.57132C12.1951 9.66916 12.2182 9.77788 12.2133 9.88716C12.2084 9.99644 12.1756 10.1026 12.1181 10.1957C12.0606 10.2887 11.9802 10.3655 11.8847 10.4188C11.7891 10.4721 11.6816 10.5 11.5722 10.5H11.3248L11.9496 11.1247C12.0558 11.2348 12.1146 11.3821 12.1133 11.5351C12.112 11.688 12.0506 11.8343 11.9425 11.9425C11.8343 12.0506 11.688 12.112 11.5351 12.1133C11.3821 12.1146 11.2348 12.0558 11.1248 11.9496L2.05042 2.87582C1.9947 2.82201 1.95026 2.75765 1.91969 2.68648C1.88912 2.61531 1.87303 2.53876 1.87235 2.46131C1.87168 2.38385 1.88644 2.30704 1.91577 2.23535C1.9451 2.16366 1.98842 2.09853 2.04319 2.04376C2.09796 1.98899 2.16309 1.94568 2.23478 1.91635C2.30647 1.88701 2.38328 1.87226 2.46073 1.87293C2.53819 1.8736 2.61473 1.88969 2.6859 1.92027C2.75707 1.95084 2.82144 1.99528 2.87525 2.05099L3.68725 2.86299C4.06524 2.33755 4.5629 1.90965 5.13905 1.61468C5.71521 1.3197 6.35331 1.16613 7.00058 1.16666M2.93008 4.91574L8.51433 10.5H2.42783C2.31845 10.5 2.21087 10.4721 2.11532 10.4188C2.01978 10.3655 1.93943 10.2887 1.88192 10.1957C1.82441 10.1026 1.79164 9.99644 1.78672 9.88716C1.7818 9.77788 1.80491 9.66916 1.85383 9.57132L2.85542 7.56874C2.89578 7.48775 2.91675 7.39848 2.91667 7.30799V5.24999C2.91667 5.13721 2.92114 5.0258 2.93008 4.91574Z" fill="#858585"/>
</svg>
