<svg width="11" height="13" viewBox="0 0 11 13" fill="none" xmlns="http://www.w3.org/2000/svg">
<path d="M5.21393 0C4.13096 0 3.09235 0.430207 2.32658 1.19598C1.5608 1.96175 1.13059 3.00037 1.13059 4.08333V6.14133C1.13068 6.23182 1.10971 6.32109 1.06934 6.40208L0.0677616 8.40467C0.0188354 8.5025 -0.00426716 8.61122 0.000648252 8.7205C0.00556367 8.82978 0.0383338 8.93598 0.0958462 9.02903C0.153359 9.12208 0.233704 9.19888 0.329251 9.25214C0.424798 9.3054 0.532374 9.33335 0.641762 9.33333H9.78609C9.89548 9.33335 10.0031 9.3054 10.0986 9.25214C10.1942 9.19888 10.2745 9.12208 10.332 9.02903C10.3895 8.93598 10.4223 8.82978 10.4272 8.7205C10.4321 8.61122 10.409 8.5025 10.3601 8.40467L9.3591 6.40208C9.31853 6.32114 9.29736 6.23187 9.29726 6.14133V4.08333C9.29726 3.00037 8.86705 1.96175 8.10128 1.19598C7.33551 0.430207 6.2969 0 5.21393 0ZM5.21393 11.0833C4.85188 11.0835 4.49869 10.9714 4.20302 10.7625C3.90736 10.5535 3.68378 10.258 3.56309 9.91667H6.86476C6.74408 10.258 6.5205 10.5535 6.22483 10.7625C5.92917 10.9714 5.57597 11.0835 5.21393 11.0833Z" fill="#AF282F"/>
</svg>
