<svg width="18" height="18" viewBox="0 0 18 18" fill="none" xmlns="http://www.w3.org/2000/svg">
<path d="M8.379 1.5C8.97569 1.50013 9.54789 1.73726 9.96975 2.15925L15.7523 7.94175C16.2318 8.42136 16.5011 9.07179 16.5011 9.75C16.5011 10.4282 16.2318 11.0786 15.7523 11.5583L11.5583 15.7523C11.0786 16.2318 10.4282 16.5011 9.75 16.5011C9.07179 16.5011 8.42136 16.2318 7.94175 15.7523L2.15925 9.96975C1.73726 9.54789 1.50013 8.97569 1.5 8.379V4.5C1.5 3.70435 1.81607 2.94129 2.37868 2.37868C2.94129 1.81607 3.70435 1.5 4.5 1.5H8.379ZM5.625 4.125C5.24657 4.12488 4.88208 4.2678 4.60459 4.52512C4.3271 4.78244 4.15713 5.13513 4.12875 5.5125L4.125 5.625C4.125 5.92167 4.21297 6.21168 4.3778 6.45835C4.54262 6.70503 4.77689 6.89729 5.05097 7.01082C5.32506 7.12435 5.62666 7.15406 5.91764 7.09618C6.20861 7.0383 6.47588 6.89544 6.68566 6.68566C6.89544 6.47588 7.0383 6.20861 7.09618 5.91764C7.15406 5.62666 7.12435 5.32506 7.01082 5.05097C6.89729 4.77689 6.70503 4.54262 6.45835 4.3778C6.21168 4.21297 5.92167 4.125 5.625 4.125Z" fill="currentColor"/>
</svg>
